<svg xmlns="http://www.w3.org/2000/svg" xmlns:xlink="http://www.w3.org/1999/xlink" version="1.1" width="256"
     height="256" viewBox="0 0 256 256" xml:space="preserve">

<defs>
</defs>
    <g style="stroke: none; stroke-width: 0; stroke-dasharray: none; stroke-linecap: butt; stroke-linejoin: miter; stroke-miterlimit: 10; fill: none; fill-rule: nonzero; opacity: 1;"
       transform="translate(1.4065934065934016 1.4065934065934016) scale(2.81 2.81)">
	<circle cx="45" cy="45" r="45"
            style="stroke: none; stroke-width: 1; stroke-dasharray: none; stroke-linecap: butt; stroke-linejoin: miter; stroke-miterlimit: 10; fill: rgb(0, 139, 173); fill-rule: nonzero; opacity: 1;"
            transform="  matrix(1 0 0 1 0 0) "/>
        <path d="M 56.979 48.645 h -6 V 27.728 c 0 -2.889 -2.351 -5.24 -5.239 -5.24 h -4.969 c -2.889 0 -5.24 2.351 -5.24 5.24 v 10.458 h -6 V 27.728 c 0 -6.198 5.042 -11.24 11.24 -11.24 h 4.969 c 6.197 0 11.239 5.042 11.239 11.24 V 48.645 z"
              style="stroke: none; stroke-width: 1; stroke-dasharray: none; stroke-linecap: butt; stroke-linejoin: miter; stroke-miterlimit: 10; fill: rgb(0, 139, 173); fill-rule: nonzero; opacity: 1;"
              transform=" matrix(1 0 0 1 0 0) " stroke-linecap="round"/>
        <path d="M 59.204 36.679 H 27.307 c -2.344 0 -4.262 1.918 -4.262 4.262 v 30.797 c 0 2.344 1.918 4.262 4.262 4.262 h 31.897 c 2.344 0 4.262 -1.918 4.262 -4.262 V 40.941 C 63.467 38.596 61.549 36.679 59.204 36.679 z M 47.627 65.112 c 0 1.815 -1.485 3.3 -3.3 3.3 h -2.142 c -1.815 0 -3.3 -1.485 -3.3 -3.3 V 54.988 c 0 -1.815 1.485 -3.3 3.3 -3.3 h 2.142 c 1.815 0 3.3 1.485 3.3 3.3 V 65.112 z"
              style="stroke: none; stroke-width: 1; stroke-dasharray: none; stroke-linecap: butt; stroke-linejoin: miter; stroke-miterlimit: 10; fill: rgb(0, 139, 173); fill-rule: nonzero; opacity: 1;"
              transform=" matrix(1 0 0 1 0 0) " stroke-linecap="round"/>
        <path d="M 60.468 45.157 h -6 V 24.24 c 0 -2.889 -2.351 -5.24 -5.239 -5.24 H 44.26 c -2.889 0 -5.24 2.351 -5.24 5.24 v 10.458 h -6 V 24.24 c 0 -6.198 5.042 -11.24 11.24 -11.24 h 4.969 c 6.197 0 11.239 5.042 11.239 11.24 V 45.157 z"
              style="stroke: none; stroke-width: 1; stroke-dasharray: none; stroke-linecap: butt; stroke-linejoin: miter; stroke-miterlimit: 10; fill: rgb(255,255,255); fill-rule: nonzero; opacity: 1;"
              transform=" matrix(1 0 0 1 0 0) " stroke-linecap="round"/>
        <path d="M 62.693 33.19 H 30.796 c -2.344 0 -4.262 1.918 -4.262 4.262 V 68.25 c 0 2.344 1.918 4.262 4.262 4.262 h 31.897 c 2.344 0 4.262 -1.918 4.262 -4.262 V 37.452 C 66.955 35.108 65.037 33.19 62.693 33.19 z M 51.115 61.624 c 0 1.815 -1.485 3.3 -3.3 3.3 h -2.142 c -1.815 0 -3.3 -1.485 -3.3 -3.3 V 51.5 c 0 -1.815 1.485 -3.3 3.3 -3.3 h 2.142 c 1.815 0 3.3 1.485 3.3 3.3 V 61.624 z"
              style="stroke: none; stroke-width: 1; stroke-dasharray: none; stroke-linecap: butt; stroke-linejoin: miter; stroke-miterlimit: 10; fill: rgb(255,255,255); fill-rule: nonzero; opacity: 1;"
              transform=" matrix(1 0 0 1 0 0) " stroke-linecap="round"/>
</g>
</svg>